# xmcd
#
# Track frame offsets:
#	150
#	10316
#	20968
#	30447
#	41784
#	51908
#	62388
#	72368
#	83752
#	95869
#	108177
#	120776
#	131480
#	141723
#	152499
#	165718
#	176782
#	185042
#	193311
#	202086
#	215285
#	226188
#
# Disc length: 3153 seconds
#
# Revision: 0
# Processed by: cddbd v1.5.1PL0 Copyright (c) Steve Scherf et al.
# Submitted via: EasyCDDAExtractor 4.6.9.1
#
DISCID=3f0c4f16
DTITLE=Don Cornell - For Teenagers Only
DYEAR=1900
DGENRE=
TTITLE0=Rockalypso
TTITLE1=Mailman Bring Me No More Blues
TTITLE2=A Ball Was Had By All
TTITLE3=Let Me Hold You In My Arms
TTITLE4=Sittin' In The Balcony
TTITLE5=Kill Me My Love
TTITLE6=Homesick Blues
TTITLE7=Only You
TTITLE8=Mama Guitar
TTITLE9=So Lonesome For You
TTITLE10=Strike While The Iron Is Hot
TTITLE11=Good Mornig Darling
TTITLE12=See Saw
TTITLE13=From The Bottom Of My Heart
TTITLE14=Na Ne Nan Na
TTITLE15=Rock Island Line
TTITLE16=Keep God In The Home
TTITLE17=I've Got Bells On My Heart
TTITLE18=I'm Crying
TTITLE19=It Isn't Fair
TTITLE20=Papa Mama Cha Cha Cha
TTITLE21=Teenage Meeting
EXTD=
EXTT0=
EXTT1=
EXTT2=
EXTT3=
EXTT4=
EXTT5=
EXTT6=
EXTT7=
EXTT8=
EXTT9=
EXTT10=
EXTT11=
EXTT12=
EXTT13=
EXTT14=
EXTT15=
EXTT16=
EXTT17=
EXTT18=
EXTT19=
EXTT20=
EXTT21=
PLAYORDER=
